<?xml version="1.0" standalone="no"?>
<!DOCTYPE svg PUBLIC "-//W3C//DTD SVG 20010904//EN"
 "http://www.w3.org/TR/2001/REC-SVG-20010904/DTD/svg10.dtd">
<svg version="1.0" xmlns="http://www.w3.org/2000/svg"
 width="459.000000pt" height="250.000000pt" viewBox="0 0 459.000000 250.000000"
 preserveAspectRatio="xMidYMid meet">
<metadata>
Created by potrace 1.16, written by Peter Selinger 2001-2019
</metadata>
<g transform="translate(0.000000,250.000000) scale(0.100000,-0.100000)"
fill="#000000" stroke="none">
<path d="M1218 2051 c-36 -42 -73 -163 -59 -190 12 -21 15 -21 411 -21 257 0
401 -4 405 -10 9 -15 -104 -343 -123 -357 -23 -19 -501 -18 -508 0 -2 7 13 73
35 147 29 98 37 138 30 152 -9 16 -24 18 -138 18 -97 0 -131 -3 -140 -14 -12
-15 -154 -401 -173 -471 -21 -79 -51 -75 506 -75 554 0 530 -3 620 80 75 69
81 82 201 460 43 134 43 190 1 245 -48 63 -65 65 -582 65 l-462 0 -24 -29z"/>
<path d="M2685 1616 c-145 -29 -237 -78 -341 -181 -155 -153 -239 -374 -213
-560 20 -144 68 -277 113 -315 25 -20 20 -40 -44 -158 -33 -62 -60 -123 -60
-137 l0 -25 294 0 c259 0 295 2 300 16 11 29 6 141 -6 151 -7 5 -38 15 -69 22
-67 14 -167 61 -192 89 -18 20 -17 24 111 264 72 134 156 295 188 358 33 63
63 114 69 114 18 -2 388 -698 383 -720 -5 -27 -110 -83 -192 -104 -44 -11 -82
-23 -85 -26 -10 -10 -10 -127 0 -146 9 -17 32 -18 300 -18 258 0 290 2 296 16
4 10 -19 65 -58 139 l-63 123 46 89 c59 113 78 192 78 324 0 129 -16 195 -77
319 -38 79 -61 109 -132 181 -93 93 -180 144 -296 174 -85 23 -264 28 -350 11z
m85 -146 c0 -10 -145 -285 -161 -306 -5 -6 -63 -112 -128 -235 -66 -123 -126
-224 -133 -224 -22 0 -49 104 -55 205 -7 111 17 218 68 306 42 74 137 165 212
203 91 46 197 74 197 51z m238 -15 c210 -66 347 -234 372 -453 14 -127 -14
-302 -49 -302 -14 0 -49 55 -151 245 -48 88 -131 240 -184 338 -53 98 -96 182
-96 187 0 15 22 12 108 -15z"/>
</g>
</svg>
